<?xml version="1.0" standalone="no"?>
<!DOCTYPE svg PUBLIC "-//W3C//DTD SVG 20010904//EN"
 "http://www.w3.org/TR/2001/REC-SVG-20010904/DTD/svg10.dtd">
<svg version="1.0" xmlns="http://www.w3.org/2000/svg"
 width="75.000000pt" height="75.000000pt" viewBox="0 0 75.000000 75.000000"
 preserveAspectRatio="xMidYMid meet">

<g transform="translate(0.000000,75.000000) scale(0.100000,-0.100000)"
fill="#000000" stroke="none">
<path d="M30 375 l0 -355 345 0 345 0 0 355 0 355 -345 0 -345 0 0 -355z m85
295 c0 -29 -32 -41 -41 -16 -9 24 4 48 23 44 12 -2 18 -12 18 -28z m75 0 c0
-16 -4 -30 -10 -30 -5 0 -10 6 -10 14 0 8 -3 21 -6 30 -4 11 -1 16 10 16 11 0
16 -9 16 -30z m80 0 c0 -16 -4 -30 -9 -30 -10 0 -21 47 -13 55 13 13 22 3 22
-25z m80 0 c0 -16 -4 -30 -9 -30 -10 0 -21 47 -13 55 13 13 22 3 22 -25z m94
15 c8 -22 -4 -46 -23 -43 -9 2 -17 15 -19 31 -3 21 1 27 16 27 11 0 22 -7 26
-15z m66 -17 c0 -36 -4 -35 -14 5 -4 16 -2 27 4 27 5 0 10 -14 10 -32z m94 17
c8 -21 -3 -45 -20 -45 -8 0 -17 7 -20 15 -8 21 2 45 20 45 7 0 16 -7 20 -15z
m81 -15 c0 -16 -6 -26 -18 -28 -19 -4 -32 20 -23 44 9 25 41 13 41 -16z m-570
-70 c8 -24 -1 -40 -21 -40 -17 0 -28 24 -20 45 8 22 34 18 41 -5z m75 -10 c0
-16 -4 -30 -9 -30 -10 0 -21 47 -13 55 13 13 22 3 22 -25z m80 0 c0 -16 -4
-30 -9 -30 -10 0 -21 47 -13 55 13 13 22 3 22 -25z m88 -3 c3 -21 -1 -27 -16
-27 -22 0 -34 22 -25 45 9 25 38 13 41 -18z m80 0 c2 -19 -1 -27 -12 -27 -11
0 -16 10 -16 31 0 38 24 35 28 -4z m72 1 c0 -36 -4 -35 -14 5 -4 16 -2 27 4
27 5 0 10 -14 10 -32z m80 0 c0 -36 -4 -35 -14 5 -4 16 -2 27 4 27 5 0 10 -14
10 -32z m90 2 c0 -16 -4 -30 -10 -30 -5 0 -10 6 -10 14 0 8 -3 21 -6 30 -4 11
-1 16 10 16 11 0 16 -9 16 -30z m-565 -99 c-9 -29 -39 -23 -43 8 -2 13 2 27
10 32 19 12 41 -14 33 -40z m152 -3 c-3 -22 -4 -21 -16 6 -9 23 -9 31 1 37 15
10 21 -9 15 -43z m171 11 c-1 -13 -7 -23 -13 -22 -13 3 -18 30 -11 50 10 24
29 1 24 -28z m71 4 c-1 -37 -1 -37 -8 -8 -7 28 -5 45 5 45 2 0 3 -17 3 -37z
m94 -11 c-7 -30 -37 -25 -41 7 -2 13 2 27 10 32 19 12 39 -12 31 -39z m-413 6
c0 -34 -13 -29 -25 10 -5 16 -2 22 9 22 11 0 16 -10 16 -32z m170 8 c0 -32
-20 -44 -36 -22 -16 23 -7 46 17 46 13 0 19 -7 19 -24z m320 0 c0 -14 -4 -28
-10 -31 -5 -3 -10 0 -10 9 0 8 -3 21 -6 30 -4 11 -1 16 10 16 10 0 16 -9 16
-24z m-565 -95 c-4 -13 -13 -21 -23 -19 -21 4 -27 34 -11 54 11 13 14 13 27 1
9 -9 11 -23 7 -36z m75 14 c0 -19 -4 -35 -9 -35 -14 0 -21 54 -8 62 17 11 17
11 17 -27z m80 0 c0 -19 -4 -35 -9 -35 -14 0 -21 54 -8 62 17 11 17 11 17 -27z
m80 0 c0 -43 -16 -46 -22 -5 -4 25 0 33 20 39 1 1 2 -15 2 -34z m100 -6 c0
-13 -29 -31 -40 -24 -14 9 -13 52 3 58 11 4 37 -19 37 -34z m75 -8 c-9 -29
-39 -23 -43 8 -2 13 2 27 10 32 19 12 41 -14 33 -40z m85 10 c-1 -17 -20 -33
-34 -28 -19 7 -22 53 -3 60 11 4 37 -19 37 -32z m78 -5 c-4 -25 -33 -33 -42
-11 -3 9 -1 25 5 36 8 17 13 18 25 8 8 -7 14 -22 12 -33z m-574 -61 c8 -21 -3
-45 -20 -45 -18 0 -28 24 -20 45 3 8 12 15 20 15 7 0 16 -7 20 -15z m81 -15
c0 -16 -6 -26 -17 -28 -14 -3 -18 3 -18 28 0 25 4 31 18 28 11 -2 17 -12 17
-28z m75 0 c0 -16 -4 -30 -9 -30 -10 0 -21 47 -13 55 13 13 22 3 22 -25z m88
-3 c3 -21 -1 -27 -16 -27 -22 0 -34 22 -25 45 9 25 38 13 41 -18z m86 18 c8
-23 -4 -45 -25 -45 -13 0 -19 7 -19 23 0 37 32 53 44 22z m80 0 c8 -23 -4 -45
-25 -45 -13 0 -19 7 -19 23 0 37 32 53 44 22z m80 0 c8 -21 -3 -45 -20 -45
-18 0 -28 24 -20 45 3 8 12 15 20 15 7 0 16 -7 20 -15z m81 -15 c0 -28 -29
-40 -38 -15 -9 22 3 46 22 43 10 -2 16 -13 16 -28z m-570 -70 c7 -23 -1 -40
-20 -40 -8 0 -17 5 -20 10 -9 15 4 50 20 50 8 0 16 -9 20 -20z m75 -10 c0 -16
-4 -30 -9 -30 -10 0 -22 40 -15 52 11 18 24 6 24 -22z m80 0 c0 -16 -4 -30 -9
-30 -10 0 -21 47 -13 55 13 13 22 3 22 -25z m88 -3 c3 -21 -1 -27 -17 -27 -23
0 -32 18 -19 43 13 25 32 16 36 -16z m81 19 c15 -18 3 -46 -20 -46 -13 0 -19
7 -19 23 0 37 18 48 39 23z m86 -6 c8 -26 -1 -40 -26 -40 -13 0 -19 7 -19 23
0 40 34 53 45 17z m79 5 c8 -23 -4 -45 -25 -45 -13 0 -19 7 -19 23 0 37 32 53
44 22z m76 -21 c0 -13 -4 -24 -9 -24 -10 0 -21 47 -13 54 10 11 22 -6 22 -30z
m-565 -64 c10 -16 -5 -50 -21 -50 -17 0 -28 24 -20 45 6 17 32 20 41 5z m75
-20 c0 -16 -4 -30 -10 -30 -5 0 -10 6 -10 14 0 8 -3 21 -6 30 -4 11 -1 16 10
16 11 0 16 -9 16 -30z m80 0 c0 -16 -4 -30 -10 -30 -5 0 -10 6 -10 14 0 8 -3
21 -6 30 -4 11 -1 16 10 16 11 0 16 -9 16 -30z m80 0 c0 -16 -4 -30 -10 -30
-5 0 -10 6 -10 14 0 8 -3 21 -6 30 -4 11 -1 16 10 16 11 0 16 -9 16 -30z m93
16 c7 -19 -17 -51 -31 -42 -20 12 -15 56 7 56 10 0 21 -6 24 -14z m82 4 c10
-16 -5 -50 -21 -50 -17 0 -28 24 -20 45 6 17 32 20 41 5z m79 -5 c8 -21 -3
-45 -20 -45 -18 0 -28 24 -20 45 3 8 12 15 20 15 7 0 16 -7 20 -15z m86 1 c0
-25 -12 -46 -25 -46 -16 0 -26 25 -19 45 8 19 44 20 44 1z m-576 -81 c8 -21
-3 -45 -20 -45 -18 0 -28 24 -20 45 3 8 12 15 20 15 7 0 16 -7 20 -15z m76
-15 c0 -16 -4 -30 -10 -30 -5 0 -10 6 -10 14 0 8 -3 21 -6 30 -4 11 -1 16 10
16 11 0 16 -9 16 -30z m80 0 c0 -16 -4 -30 -10 -30 -5 0 -10 6 -10 14 0 8 -3
21 -6 30 -4 11 -1 16 10 16 11 0 16 -9 16 -30z m88 3 c-4 -36 -38 -45 -38 -10
0 27 7 37 27 37 10 0 13 -9 11 -27z m78 12 c4 -8 3 -23 -1 -32 -7 -17 -8 -16
-15 2 -5 11 -9 26 -9 33 -1 17 18 15 25 -3z m88 0 c8 -21 -3 -45 -20 -45 -18
0 -28 24 -20 45 3 8 12 15 20 15 7 0 16 -7 20 -15z m80 0 c8 -21 -3 -45 -20
-45 -18 0 -28 24 -20 45 3 8 12 15 20 15 7 0 16 -7 20 -15z m76 -15 c0 -16 -4
-30 -10 -30 -5 0 -10 6 -10 14 0 8 -3 21 -6 30 -4 11 -1 16 10 16 11 0 16 -9
16 -30z"/>
<path d="M581 674 c0 -11 3 -14 6 -6 3 7 2 16 -1 19 -3 4 -6 -2 -5 -13z"/>
<path d="M91 584 c0 -11 3 -14 6 -6 3 7 2 16 -1 19 -3 4 -6 -2 -5 -13z"/>
<path d="M91 504 c0 -11 3 -14 6 -6 3 7 2 16 -1 19 -3 4 -6 -2 -5 -13z"/>
<path d="M581 504 c0 -11 3 -14 6 -6 3 7 2 16 -1 19 -3 4 -6 -2 -5 -13z"/>
<path d="M502 420 c0 -14 2 -19 5 -12 2 6 2 18 0 25 -3 6 -5 1 -5 -13z"/>
<path d="M581 424 c0 -11 3 -14 6 -6 3 7 2 16 -1 19 -3 4 -6 -2 -5 -13z"/>
<path d="M502 340 c0 -14 2 -19 5 -12 2 6 2 18 0 25 -3 6 -5 1 -5 -13z"/>
<path d="M91 254 c0 -11 3 -14 6 -6 3 7 2 16 -1 19 -3 4 -6 -2 -5 -13z"/>
<path d="M501 254 c0 -11 3 -14 6 -6 3 7 2 16 -1 19 -3 4 -6 -2 -5 -13z"/>
<path d="M581 254 c0 -11 3 -14 6 -6 3 7 2 16 -1 19 -3 4 -6 -2 -5 -13z"/>
<path d="M91 174 c0 -11 3 -14 6 -6 3 7 2 16 -1 19 -3 4 -6 -2 -5 -13z"/>
<path d="M501 174 c0 -11 3 -14 6 -6 3 7 2 16 -1 19 -3 4 -6 -2 -5 -13z"/>
<path d="M581 174 c0 -11 3 -14 6 -6 3 7 2 16 -1 19 -3 4 -6 -2 -5 -13z"/>
<path d="M661 174 c0 -11 3 -14 6 -6 3 7 2 16 -1 19 -3 4 -6 -2 -5 -13z"/>
<path d="M502 90 c0 -14 2 -19 5 -12 2 6 2 18 0 25 -3 6 -5 1 -5 -13z"/>
</g>
</svg>
